<?xml version="1.0" encoding="UTF-8"?>
<svg width="117px" height="18px" viewBox="0 0 117 18" version="1.1" xmlns="http://www.w3.org/2000/svg" xmlns:xlink="http://www.w3.org/1999/xlink">
    <!-- Generator: Sketch 49.3 (51167) - http://www.bohemiancoding.com/sketch -->
    <title>mdpi/trucknet_logo</title>
    <desc>Created with Sketch.</desc>
    <defs></defs>
    <g id="Page-1" stroke="none" stroke-width="1" fill="none" fill-rule="evenodd">
        <g id="1.MDPI,-Sign-Up,-Mobile" transform="translate(-40.000000, -56.000000)" fill-rule="nonzero">
            <g id="trucknet_logo" transform="translate(40.000000, 56.000000)">
                <polygon id="Shape" fill="#FFFFFF" points="83.4642049 0.252631579 81.0075202 9.17368421 77.8333827 0.252631579 73.5239353 0.252631579 68.5979515 17.7789474 73.3284097 17.7789474 75.9301617 8.51526316 79.1279515 17.7789474 83.358558 17.7789474 88.1678571 0.252631579"></polygon>
                <polygon id="Shape" fill="#FFFFFF" points="90.5188949 13.6436842 91.3009973 10.8126316 97.9157547 10.8126316 99.0037601 6.81473684 92.3890027 6.81473684 93.0575741 4.40526316 100.567965 4.40526316 101.813652 0.252631579 89.5302291 0.252631579 84.536442 17.7789474 102.775512 17.7789474 103.552884 14.9715789 103.913976 13.6436842"></polygon>
                <polygon id="Shape" fill="#FFFFFF" points="103.120836 0.252631579 101.966604 4.40526316 106.432156 4.40526316 107.562736 0.252631579 110.060418 8.84842105 102.78655 17.7789474 107.622655 17.7789474 111.310836 4.40526316 115.811078 4.40526316 116.97004 0.252631579"></polygon>
                <path d="M28.6050809,4.93263158 C28.8810243,1.98789474 27.2300943,0.252631579 24.1489892,0.252631579 L16.1750135,0.252631579 L11.1954178,17.7663158 L16.039407,17.7663158 L17.9757412,11.3494737 L19.5415229,11.3494737 L19.9325741,17.7884211 L24.9500135,17.7884211 L24.1616038,10.5252632 C27.1386388,9.46263158 28.3906334,7.22210526 28.6050809,4.93263158 Z M23.6254852,5.58631579 C23.4946092,6.99473684 22.2063477,7.44789474 21.4636658,7.44789474 L19.0306334,7.44789474 L19.9294205,4.20157895 L22.2142318,4.20157895 C23.0341779,4.20157895 23.7200943,4.57894737 23.6254852,5.58631579 Z" id="Shape" fill="#2CCE62"></path>
                <polygon id="Shape" fill="#2CCE62" points="14.7952965 0.262105263 1.12584906 0.252631579 0 4.32789474 4.54597035 4.32789474 0.854636119 17.7663158 5.74908356 17.7663158 9.43884097 4.32789474 13.6584097 4.38157895"></polygon>
                <path d="M40.7103235,0.262105263 L37.5566846,10.9989474 C37.1419811,12.5084211 36.1722372,13.8410526 34.6080323,13.8410526 C33.1415903,13.8410526 32.6180863,12.81 33.1021698,11.0731579 L36.2416173,0.252631579 L31.3787062,0.252631579 L28.3669811,10.5947368 C27.2773989,14.5421053 28.9030997,17.8926316 33.9709973,17.8926316 C39.0388949,17.8926316 41.5160782,14.4947368 42.539434,10.7194737 L45.577965,0.262105263 L40.7103235,0.262105263 Z" id="Shape" fill="#2CCE62"></path>
                <polygon id="Shape" fill="#2CCE62" points="77.8333827 0.252631579 71.6601348 0.252631579 65.5893801 5.98894737 65.4648113 5.98894737 67.0400539 0.262105263 62.158221 0.262105263 57.2054313 17.7884211 62.2149865 17.7884211 63.4464825 13.2363158 65.8022507 11.1473684 67.9419946 17.7726316 73.3284097 17.7789474 69.8089488 7.62473684"></polygon>
                <path d="M52.9054447,11.7268421 C52.1422642,13.2615789 51.2923585,13.8394737 50.248504,13.8394737 C48.5849596,13.8394737 48.2948248,12.6836842 48.6716846,11.3747368 L49.9851752,6.56842105 C50.3573046,5.23421053 51.2056334,4.12736842 52.6468464,4.12736842 C53.5172507,4.12736842 54.4523046,4.47947368 54.4428437,6.16578947 L59.023504,4.47947368 C58.7380997,1.40842105 56.5100539,0 52.9590566,0 C48.3373989,0 46.0021294,3.19578947 44.9898113,6.84473684 L43.8686927,10.8710526 C42.7113073,15.0236842 45.1490701,17.9178947 49.7928032,17.9178947 C52.9984771,17.9178947 56.325566,16.1810526 57.6390566,12.4373684 L52.9054447,11.7268421 Z" id="Shape" fill="#2CCE62"></path>
            </g>
        </g>
    </g>
</svg>